<svg id="visual" viewBox="0 0 900 600" width="900" height="600" xmlns="http://www.w3.org/2000/svg" xmlns:xlink="http://www.w3.org/1999/xlink" version="1.1"><rect x="0" y="0" width="900" height="600" fill="#001220"></rect><defs><linearGradient id="grad1_0" x1="33.3%" y1="0%" x2="100%" y2="100%"><stop offset="20%" stop-color="#001220" stop-opacity="1"></stop><stop offset="80%" stop-color="#001220" stop-opacity="1"></stop></linearGradient></defs><defs><linearGradient id="grad2_0" x1="0%" y1="0%" x2="66.7%" y2="100%"><stop offset="20%" stop-color="#001220" stop-opacity="1"></stop><stop offset="80%" stop-color="#001220" stop-opacity="1"></stop></linearGradient></defs><g transform="translate(900, 0)"><path d="M0 243.4C-33.1 241.5 -66.2 239.7 -93.1 224.8C-120 210 -140.7 182.1 -156.3 156.3C-171.8 130.5 -182.2 106.8 -195.9 81.1C-209.5 55.4 -226.4 27.7 -243.4 0L0 0Z" fill="#FBAE3C"></path></g><g transform="translate(0, 600)"><path d="M0 -243.4C28.9 -234.6 57.9 -225.9 89.5 -216.2C121.2 -206.5 155.7 -195.7 172.1 -172.1C188.5 -148.5 187 -112 195.9 -81.1C204.7 -50.3 224.1 -25.1 243.4 0L0 0Z" fill="#FBAE3C"></path></g></svg>